<svg xmlns="http://www.w3.org/2000/svg" viewBox="0 0 129.3 149.31"><defs><style>.cls-1{fill:#fbd026;}.cls-2{fill:#ff1b2d;}.cls-3{fill:#cb0b1e;}.cls-4{fill:#b20317;}</style></defs><title>Element 10</title><g id="Ebene_2" data-name="Ebene 2"><g id="Ebene_11" data-name="Ebene 11"><polygon class="cls-1" points="96.98 43.55 86.2 37.33 75.43 43.55 64.65 49.77 75.43 55.99 86.2 62.21 86.2 74.65 86.2 87.09 75.43 93.32 64.65 99.54 75.43 105.76 86.2 111.98 96.98 105.76 107.75 99.54 107.75 87.09 107.75 74.65 107.75 62.21 107.75 49.77 96.98 43.55"/><polygon class="cls-2" points="75.43 55.99 64.65 49.77 53.88 55.99 43.1 62.21 43.1 74.65 43.1 87.09 53.88 93.32 64.65 99.54 75.43 93.32 86.2 87.09 86.2 74.65 86.2 62.21 75.43 55.99"/><polygon class="cls-3" points="64.65 99.54 53.88 93.32 43.1 87.09 43.1 74.65 43.1 62.21 53.88 55.99 64.65 49.77 75.43 43.55 86.2 37.33 75.43 31.11 64.65 24.88 53.88 31.11 43.1 37.33 32.33 43.55 21.55 49.77 21.55 62.21 21.55 74.65 21.55 87.09 21.55 99.54 32.33 105.76 43.1 111.98 53.88 118.2 64.65 124.42 75.43 118.2 86.2 111.98 75.43 105.76 64.65 99.54"/><path class="cls-4" d="M118.53,31.11l-10.78-6.22L97,18.66,86.2,12.44,75.43,6.22,64.65,0,53.88,6.22,43.1,12.44,32.33,18.66,21.55,24.88,10.78,31.11,0,37.33V112l10.78,6.22,10.78,6.22,10.78,6.22,10.78,6.22,10.78,6.22,10.78,6.22,10.78-6.22,10.78-6.22L97,130.64l10.78-6.22,10.78-6.22L129.3,112V37.33ZM97,105.76,86.2,112,75.43,118.2l-10.78,6.22L53.88,118.2,43.1,112l-10.78-6.22L21.55,99.54V49.77l10.78-6.22L43.1,37.33l10.78-6.22,10.78-6.22,10.78,6.22L86.2,37.33,97,43.55l10.78,6.22V99.54Z"/></g></g></svg>